/* XPM */
static const char * help_xpm[] = {
"24 24 129 2",
"  	c None",
". 	c #6371AA",
"+ 	c #ABF3FF",
"@ 	c #5188B1",
"# 	c #7274CF",
"$ 	c #7795E4",
"% 	c #B3C9D6",
"& 	c #86B2F6",
"* 	c #5A8CC4",
"= 	c #737373",
"- 	c #F4FDFF",
"; 	c #81A7EB",
"> 	c #C4C5D5",
", 	c #5C6780",
"' 	c #C2F6FF",
") 	c #7BA3BC",
"! 	c #94A8BE",
"~ 	c #88C2EE",
"{ 	c #D5F9FF",
"] 	c #283492",
"^ 	c #7AA2E3",
"/ 	c #32478C",
"( 	c #6784A6",
"_ 	c #5957C3",
": 	c #CDF8FF",
"< 	c #9590D9",
"[ 	c #EEFDFF",
"} 	c #F4F4F4",
"| 	c #BAF5FF",
"1 	c #979ABA",
"2 	c #D1F8FF",
"3 	c #FEFEFE",
"4 	c #E2FBFF",
"5 	c #B6F5FF",
"6 	c #DEFAFF",
"7 	c #768CDF",
"8 	c #97E0FD",
"9 	c #A5F2FF",
"0 	c #8A94A9",
"a 	c #BEF6FF",
"b 	c #5548BB",
"c 	c #615EA6",
"d 	c #4A7CAB",
"e 	c #CBCAE6",
"f 	c #F8FEFF",
"g 	c #96DAFC",
"h 	c #DAFAFF",
"i 	c #8CC1FD",
"j 	c #A1F2FF",
"k 	c #A5B7C6",
"l 	c #42578C",
"m 	c #5A78A5",
"n 	c #C6F7FF",
"o 	c #7B97CA",
"p 	c #D1D1D1",
"q 	c #E4E4E4",
"r 	c #98E5FB",
"s 	c #B2F4FF",
"t 	c #8BACC3",
"u 	c #5138B3",
"v 	c #595E6A",
"w 	c #EAFCFF",
"x 	c #6B6B6B",
"y 	c #181D7F",
"z 	c #FCFCFC",
"A 	c #A2AFC3",
"B 	c #E7FCFF",
"C 	c #A2EDFE",
"D 	c #FCFFFF",
"E 	c #78C4E1",
"F 	c #E4FBFF",
"G 	c #9EEDFE",
"H 	c #4667B1",
"I 	c #CFD4DD",
"J 	c #C4BDE6",
"K 	c #94D1F7",
"L 	c #96B1C2",
"M 	c #DAEEF4",
"N 	c #D1E1E8",
"O 	c #E2EFF4",
"P 	c #CCECF4",
"Q 	c #181585",
"R 	c #3851A2",
"S 	c #EAEAEA",
"T 	c #FBFBFB",
"U 	c #989898",
"V 	c #7F7F7F",
"W 	c #BBBBBB",
"X 	c #C2C2C2",
"Y 	c #DCDCDC",
"Z 	c #D7D7D7",
"` 	c #8F8F8F",
" .	c #B1B1B1",
"..	c #75AEC7",
"+.	c #6DB2D3",
"@.	c #88DFEF",
"#.	c #7FB2C9",
"$.	c #8EC9DB",
"%.	c #5F5EBF",
"&.	c #7088DD",
"*.	c #5E6673",
"=.	c #6152B1",
"-.	c #718CB9",
";.	c #7194B4",
">.	c #1F2688",
",.	c #B1BFCE",
"'.	c #376392",
").	c #537FBE",
"!.	c #62739A",
"~.	c #6D82C3",
"{.	c #5D9CC0",
"].	c #869FDC",
"^.	c #8FB0C3",
"/.	c #99A5DE",
"(.	c #7661BF",
"_.	c #A5A4B3",
":.	c #ACB1BA",
"<.	c #486FA3",
"[.	c #DDDCF2",
"}.	c #C8F7FF",
"|.	c #EDF1F4",
"1.	c #E7E3F4",
"2.	c #C6DFE8",
"3.	c #ADB7D1",
"4.	c #E8E6F6",
"5.	c #858399",
"6.	c #918BB3",
"7.	c #64A1CB",
"8.	c #FFFFFF",
"8.8.8.8.8.8.[.< # &.7 $ $ 7 /.e } z 8.8.8.8.8.8.",
"8.8.8.8.4.# # ~ + | ' ' a s K ; ].I } 3 8.8.8.8.",
"8.8.8.J _ ~ s : ^.;.( m m t : 5 g ; 3.S T 8.8.8.",
"8.8.J _ r ' P ( 7.* ).H R ] / P ' C & A q T 8.8.",
"8.1.b r a h ) E 7.( > > ( ] >.l h ' C ; :.S 3 8.",
"8.(.~ 5 { M {.E ( 8.8.8.8.0 >.Q % { | 8 ].X } 8.",
"e _ 9 n 6 % @.+.I 8.8.8.8.|.>.Q ! 6 }.+ i 0 Y 3 ",
"# ^ s 2 F N L L 8.8.8.8.8.D >.Q ! 4 2 5 g o W } ",
"u r | { F [ f D D 8.8.8.D 1 ] y N 4 { a C ; U q ",
"u j a { F [ - f D D D D A / ] !.[ 4 { ' 9 i V Z ",
"_ 9 ' { 4 w - f f f D A R R l O w 4 { ' + i = p ",
"_ 9 a 2 6 w [ - f f ,.<.H l O [ B 6 2 a + i = p ",
"b j | : h F w [ - - m ).<.O [ w 4 h : | 9 i = p ",
"u r s n { 6 F w [ [ d * k [ w F 6 { n 5 G ; = p ",
"(.^ + a : { 6 F B % {.<.M B 4 6 { : a + g -.V Z ",
"> _ j s ' : { 6 4 2.t ) 4 6 h { : ' 5 9 i *.U q ",
"} =.~ + | ' : { { h h 6 h { 2 : n | + 8 o x W } ",
"3 > b r + 5 ' n : ) @ '.: : n ' | + G ; v ` Y 3 ",
"8.} 1 _ r + s | ' #.+.d ' ' | s + G & , = X } 8.",
"8.3 S 6.b ~ 9 + s $...) s s + 9 g ^ , x  .S 3 8.",
"8.8.T q _.=.# ~ j 9 9 9 9 j K ; ~.v =  .q T 8.8.",
"8.8.8.T S X 5.c %.&.7 $ $ # . v x ` X S T 8.8.8.",
"8.8.8.8.3 } Y W U V = = = = V U W Y } 3 8.8.8.8.",
"8.8.8.8.8.8.3 } q Z p p p p Z q } 3 8.8.8.8.8.8."};
